<svg width="16" height="17" viewBox="0 0 16 17" fill="none" xmlns="http://www.w3.org/2000/svg">
<path d="M5.15312 1.26701C4.9125 0.685763 4.27812 0.376388 3.67188 0.542013L0.921875 1.29201C0.378125 1.44201 0 1.93576 0 2.49826C0 10.2295 6.26875 16.4983 14 16.4983C14.5625 16.4983 15.0563 16.1201 15.2063 15.5764L15.9563 12.8264C16.1219 12.2201 15.8125 11.5858 15.2312 11.3451L12.2312 10.0951C11.7219 9.88264 11.1313 10.0295 10.7844 10.4576L9.52188 11.9983C7.32188 10.9576 5.54063 9.17639 4.5 6.97639L6.04063 5.71701C6.46875 5.36701 6.61562 4.77951 6.40312 4.27014L5.15312 1.27014V1.26701Z" fill="#FF8B71"/>
</svg>
